<svg xmlns="http://www.w3.org/2000/svg" xmlns:xlink="http://www.w3.org/1999/xlink" width="1920" height="937" viewBox="0 0 1920 937">
  <defs>
    <clipPath id="clip-path">
      <rect id="Rectangle_80" data-name="Rectangle 80" width="1920" height="937" transform="translate(0 1170)" fill="#fff" stroke="#707070" stroke-width="1"/>
    </clipPath>
    <linearGradient id="linear-gradient" x1="0.985" y1="0.057" x2="0" y2="0.972" gradientUnits="objectBoundingBox">
      <stop offset="0" stop-color="#00af92"/>
      <stop offset="1" stop-color="#00e497"/>
    </linearGradient>
  </defs>
  <g id="bg_graphic" data-name="bg graphic" transform="translate(0 -1170)" clip-path="url(#clip-path)">
    <path id="Path_39" data-name="Path 39" d="M42.1.139,1991.781,9.863c23.3.116,42.278,13.7,42.394,30.344l2.7,387.022c.116,16.642-18.676,30.039-41.974,29.923L45.219,447.427c-23.3-.116-42.278-13.7-42.394-30.343L.122,30.061C.006,13.419,18.8.022,42.1.139Z" transform="matrix(0.998, -0.07, 0.07, 0.998, -72.469, 1454.671)" fill="#00e497" opacity="0.11"/>
    <path id="Path_41" data-name="Path 41" d="M41.706.367,1982.353,28.246c23.19.333,42.258,14.263,42.591,31.114l7.747,391.869c.333,16.85-18.2,30.241-41.385,29.907L50.659,453.257C27.47,452.924,8.4,438.994,8.068,422.144L.32,30.275C-.013,13.424,18.516.034,41.706.367Z" transform="matrix(0.995, -0.105, 0.105, 0.995, -76.603, 1478.534)" fill="#00e497" opacity="0.11"/>
    <path id="Path_40" data-name="Path 40" d="M43.392,3.169,1993.078-6.556c23.3-.116,42.09,13.281,41.974,29.923l-2.7,387.022c-.116,16.642-19.1,30.227-42.394,30.343L40.269,450.457c-23.3.116-42.09-13.281-41.973-29.923L1,33.512C1.114,16.87,20.095,3.285,43.392,3.169Z" transform="matrix(0.999, -0.035, 0.035, 0.999, -64.3, 1425.379)" fill="url(#linear-gradient)"/>
  </g>
</svg>
