<svg xmlns="http://www.w3.org/2000/svg" xmlns:xlink="http://www.w3.org/1999/xlink" width="93.596" height="93.596" viewBox="0 0 93.596 93.596">
  <defs>
    <linearGradient id="linear-gradient" x1="0.833" y1="0.098" x2="0.146" y2="0.964" gradientUnits="objectBoundingBox">
      <stop offset="0" stop-color="#00e497"/>
      <stop offset="1" stop-color="#00af92"/>
    </linearGradient>
  </defs>
  <g id="Component_16_1" data-name="Component 16 – 1" transform="translate(1 1)">
    <path id="Path_144" data-name="Path 144" d="M34.793,35q-.88.214-1.77.38a25.816,25.816,0,0,1-9.741-.037q-.845-.165-2.388-.578l-3.368,4.377c-8.312-.267-11.471-5.836-11.471-5.836a52.253,52.253,0,0,1,5.416-22.386,18.363,18.363,0,0,1,10.568-4.03l1.474,1.92a4.094,4.094,0,0,1,.41-.037,31.181,31.181,0,0,1,8.462.037L34,6.893a18.346,18.346,0,0,1,10.568,4.033,52.2,52.2,0,0,1,5.419,22.383s-3.2,5.566-11.511,5.836L34.793,35ZM20.759,21.911a3.793,3.793,0,0,0-3.935,3.657,3.816,3.816,0,0,0,3.935,3.657,3.666,3.666,0,1,0,0-7.313Zm14.071,0A3.792,3.792,0,0,0,30.9,25.568a3.943,3.943,0,0,0,7.866,0A3.793,3.793,0,0,0,34.83,21.911Z" transform="translate(18.121 22.541)" fill="url(#linear-gradient)"/>
    <ellipse id="Ellipse_12" data-name="Ellipse 12" cx="45.798" cy="45.798" rx="45.798" ry="45.798" transform="translate(0 91.596) rotate(-90)" fill="none" stroke="#00e497" stroke-miterlimit="10" stroke-width="2"/>
  </g>
</svg>
