<svg xmlns="http://www.w3.org/2000/svg" width="84.404" height="84.404" viewBox="0 0 84.404 84.404">
  <g id="Component_16_1" data-name="Component 16 – 1" transform="translate(1 1)">
    <path id="Path_144" data-name="Path 144" d="M31.909,32.181q-.791.193-1.592.342a23.225,23.225,0,0,1-8.764-.033q-.76-.148-2.148-.52l-3.03,3.938c-7.478-.24-10.32-5.25-10.32-5.25a47.009,47.009,0,0,1,4.872-20.14,16.52,16.52,0,0,1,9.507-3.625L21.76,8.62a3.683,3.683,0,0,1,.368-.033,28.052,28.052,0,0,1,7.612.033L31.2,6.893A16.5,16.5,0,0,1,40.7,10.522a46.961,46.961,0,0,1,4.875,20.136s-2.879,5.007-10.356,5.25l-3.313-3.731ZM19.283,20.4a3.412,3.412,0,0,0-3.54,3.29,3.433,3.433,0,0,0,3.54,3.29,3.3,3.3,0,1,0,0-6.579Zm12.659,0a3.412,3.412,0,0,0-3.536,3.29,3.547,3.547,0,0,0,7.076,0A3.413,3.413,0,0,0,31.942,20.4Z" transform="translate(15.695 19.587)"/>
    <ellipse id="Ellipse_12" data-name="Ellipse 12" cx="41.202" cy="41.202" rx="41.202" ry="41.202" transform="translate(0 82.404) rotate(-90)" fill="none" stroke="#00e497" stroke-miterlimit="10" stroke-width="2"/>
  </g>
</svg>
