<svg xmlns="http://www.w3.org/2000/svg" xmlns:xlink="http://www.w3.org/1999/xlink" width="93.514" height="93.514" viewBox="0 0 93.514 93.514">
  <defs>
    <linearGradient id="linear-gradient" x1="0.939" y1="0.207" x2="0.145" y2="0.89" gradientUnits="objectBoundingBox">
      <stop offset="0" stop-color="#00e497"/>
      <stop offset="1" stop-color="#00af92"/>
    </linearGradient>
  </defs>
  <g id="gitcoin" transform="translate(1 1)">
    <g id="gitcoin-logo" transform="translate(25.351 9.643)">
      <path id="Path_126" data-name="Path 126" d="M73.419,60.159A1.357,1.357,0,0,1,72.062,58.8V48.109a1.357,1.357,0,1,1,2.713,0V58.8a1.357,1.357,0,0,1-1.357,1.357" transform="translate(-53.461 -34.684)" fill="#00e497" fill-rule="evenodd"/>
      <path id="Path_127" data-name="Path 127" d="M69.5,93.435H73.7" transform="translate(-51.563 -69.317)" fill="#fff" fill-rule="evenodd"/>
      <path id="Path_128" data-name="Path 128" d="M69.8,90.891H65.6a1.357,1.357,0,1,1,0-2.714H69.8a1.357,1.357,0,1,1,0,2.714" transform="translate(-47.663 -65.416)" fill="#15003e" fill-rule="evenodd"/>
      <path id="Path_129" data-name="Path 129" d="M34.891,79.957l4.458-4.2a18.851,18.851,0,1,0-13.33,32.181c3.881,0,7.294,1.417,10.291-.594l3.731.516-.107-6.057L29.251,93.342l2.3-10.818,3.343-2.566" transform="translate(-5.318 -52.105)" fill="#fff" fill-rule="evenodd"/>
      <path id="Path_131" data-name="Path 131" d="M108.166,123.231l-2.657-2.575a10.768,10.768,0,0,0-.232-15.217l-1.386-1.346,1.487-1.4,1.266,1.342,1.211-1.247a14.468,14.468,0,0,1,.311,20.446" transform="translate(-77.074 -76.183)" fill="#0fce7c" fill-rule="evenodd"/>
      <path id="Path_132" data-name="Path 132" d="M63.709,131.032a4.256,4.256,0,1,1,4.256,4.256,4.256,4.256,0,0,1-4.256-4.256" transform="translate(-47.264 -94.052)" fill="#eff4ee" fill-rule="evenodd"/>
      <path id="Union_5" data-name="Union 5" d="M-2831.486-5827.029v0a20.726,20.726,0,0,1-20.364-20.7,20.734,20.734,0,0,1,12.178-18.865v-4.69a1.358,1.358,0,0,1,1.357-1.357,1.358,1.358,0,0,1,1.357,1.357v3.683a20.648,20.648,0,0,1,5.808-.83,20.565,20.565,0,0,1,14.638,6.063l1.347,1.347-5.845,5.509-.041-.044-4.94,4.564a6.07,6.07,0,0,1,.946,3.262,6.074,6.074,0,0,1-1.194,3.622l10.855,8.17,0,8.909Zm-16.665-20.7a17.021,17.021,0,0,0,17,17h12.065v-3.36l-10.338-7.783a6.083,6.083,0,0,1-1.728.249,6.113,6.113,0,0,1-6.106-6.106,6.112,6.112,0,0,1,6.106-6.106,6.074,6.074,0,0,1,2.3.449l8.283-7.653a16.872,16.872,0,0,0-10.581-3.69,16.948,16.948,0,0,0-5.808,1.021v6.852a1.358,1.358,0,0,1-1.357,1.356,1.358,1.358,0,0,1-1.357-1.356v-5.578A17.007,17.007,0,0,0-2848.151-5847.73Zm14.594,0a2.409,2.409,0,0,0,2.407,2.405,2.409,2.409,0,0,0,2.407-2.405,2.41,2.41,0,0,0-2.407-2.407A2.41,2.41,0,0,0-2833.557-5847.73Z" transform="translate(2851.852 5884.711)" fill="url(#linear-gradient)"/>
      <path id="Path_137" data-name="Path 137" d="M3.329,2.2,1.846,3.68.363,2.2,1.846.714Z" transform="translate(37.417 12.246)" fill="#25e899" fill-rule="evenodd"/>
      <path id="Path_138" data-name="Path 138" d="M123.086,7.294,122.377,8l-.709-.709.709-.709Zm7.364-6.225a1.069,1.069,0,1,0-1.069,1.069,1.069,1.069,0,0,0,1.069-1.069" transform="translate(-90.262 0)" fill="#25e899" fill-rule="evenodd"/>
    </g>
    <path id="Path_140" data-name="Path 140" d="M45.757,0A45.757,45.757,0,1,1,0,45.757,45.757,45.757,0,0,1,45.757,0Z" fill="none" stroke="#00e497" stroke-width="2"/>
  </g>
</svg>
