<svg xmlns="http://www.w3.org/2000/svg" width="83.514" height="83.514" viewBox="0 0 83.514 83.514">
  <g id="gitcoin" transform="translate(1 1)">
    <g id="gitcoin-logo" transform="translate(22.581 8.589)">
      <path id="Path_125" data-name="Path 125" d="M97.743,107.9l3.208,6.321-2.434,10.337-5.8-4.736,1.016-7.583Z" transform="translate(-71.401 -83.094)" fill="#fff" fill-rule="evenodd"/>
      <path id="Path_126" data-name="Path 126" d="M73.27,58.694a1.209,1.209,0,0,1-1.208-1.208V47.96a1.208,1.208,0,1,1,2.417,0v9.525a1.209,1.209,0,0,1-1.208,1.209" transform="translate(-55.494 -36.003)" fill="#15003e" fill-rule="evenodd"/>
      <path id="Path_127" data-name="Path 127" d="M69.5,93.435h3.735" transform="translate(-53.524 -71.952)" fill="#fff" fill-rule="evenodd"/>
      <path id="Path_128" data-name="Path 128" d="M69.191,90.594H65.456a1.209,1.209,0,1,1,0-2.417h3.735a1.209,1.209,0,1,1,0,2.417" transform="translate(-49.475 -67.903)" fill="#15003e" fill-rule="evenodd"/>
      <path id="Path_129" data-name="Path 129" d="M31.862,78.895l3.971-3.743a16.791,16.791,0,1,0-11.873,28.664c3.457,0,6.5,1.262,9.167-.529l3.323.46-.095-5.4-9.516-7.536,2.046-9.636,2.978-2.286" transform="translate(-5.52 -54.086)" fill="#fff" fill-rule="evenodd"/>
      <path id="Path_130" data-name="Path 130" d="M18.44,99.945A18.439,18.439,0,1,1,31.478,68.468l1.2,1.2-5.206,4.907-2.261-2.4,2.668-2.514a15.144,15.144,0,1,0-9.44,26.987" transform="translate(0 -48.567)" fill-rule="evenodd"/>
      <path id="Path_131" data-name="Path 131" d="M107.7,120.986l-2.367-2.293a9.591,9.591,0,0,0-.206-13.554l-1.235-1.2,1.324-1.249,1.128,1.2,1.079-1.111a12.887,12.887,0,0,1,.277,18.212" transform="translate(-80.004 -79.08)" fill="#0fce7c" fill-rule="evenodd"/>
      <path id="Path_132" data-name="Path 132" d="M63.709,130.567a3.791,3.791,0,1,1,3.791,3.791,3.791,3.791,0,0,1-3.791-3.791" transform="translate(-49.061 -97.628)" fill="#eff4ee" fill-rule="evenodd"/>
      <path id="Path_133" data-name="Path 133" d="M61.981,101.354a2.143,2.143,0,1,0,2.143,2.143,2.146,2.146,0,0,0-2.143-2.143m0,7.582A5.439,5.439,0,1,1,67.42,103.5a5.445,5.445,0,0,1-5.439,5.439M73.854,91.624l-9.582,8.853" transform="translate(-43.542 -70.558)" fill-rule="evenodd"/>
      <path id="Path_134" data-name="Path 134" d="M87.537,97.635,85.3,95.214l9.582-8.853,2.237,2.421Z" transform="translate(-65.688 -66.505)" fill-rule="evenodd"/>
      <path id="Path_135" data-name="Path 135" d="M87.98,157.806l6.887,5.185,3.719,2.8V172.9l-7.471-.36" transform="translate(-67.752 -121.523)" fill="#fff" fill-rule="evenodd"/>
      <path id="Path_136" data-name="Path 136" d="M93.239,168.492H78.9v-3.3H89.944V162.2l-9.949-7.491,1.982-2.633,11.263,8.478Z" transform="translate(-60.757 -117.113)" fill-rule="evenodd"/>
      <path id="Path_137" data-name="Path 137" d="M3,2.035,1.684,3.356.363,2.035,1.684.714Z" transform="translate(33.289 10.83)" fill="#25e899" fill-rule="evenodd"/>
      <path id="Path_138" data-name="Path 138" d="M122.931,6.5l-.632.632-.631-.632.631-.631ZM129.49.952a.952.952,0,1,0-.952.952.952.952,0,0,0,.952-.952" transform="translate(-93.694)" fill="#25e899" fill-rule="evenodd"/>
      <path id="Path_139" data-name="Path 139" d="M48.39,62.021a1.209,1.209,0,0,1-1.208-1.208V47.961a1.209,1.209,0,1,1,2.417,0V60.812a1.209,1.209,0,0,1-1.209,1.208" transform="translate(-36.334 -36.003)" fill-rule="evenodd"/>
    </g>
    <path id="Path_140" data-name="Path 140" d="M40.757,0A40.757,40.757,0,1,1,0,40.757,40.757,40.757,0,0,1,40.757,0Z" fill="none" stroke="#00e497" stroke-width="2"/>
  </g>
</svg>
