<svg xmlns="http://www.w3.org/2000/svg" xmlns:xlink="http://www.w3.org/1999/xlink" width="756" height="567" viewBox="0 0 756 567">
  <defs>
    <linearGradient id="linear-gradient" x1="0.5" x2="0.5" y2="1" gradientUnits="objectBoundingBox">
      <stop offset="0" stop-color="#fff" stop-opacity="0"/>
      <stop offset="1" stop-color="#00724c" stop-opacity="0.322"/>
    </linearGradient>
    <filter id="Ellipse_74" x="267.5" y="34.5" width="70" height="70" filterUnits="userSpaceOnUse">
      <feOffset dy="2" input="SourceAlpha"/>
      <feGaussianBlur stdDeviation="4.5" result="blur"/>
      <feFlood flood-opacity="0.161"/>
      <feComposite operator="in" in2="blur"/>
      <feComposite in="SourceGraphic"/>
    </filter>
    <filter id="Ellipse_76" x="231.5" y="117.5" width="70" height="70" filterUnits="userSpaceOnUse">
      <feOffset dy="3" input="SourceAlpha"/>
      <feGaussianBlur stdDeviation="4.5" result="blur-2"/>
      <feFlood flood-opacity="0.161"/>
      <feComposite operator="in" in2="blur-2"/>
      <feComposite in="SourceGraphic"/>
    </filter>
    <filter id="Ellipse_75" x="169.5" y="18.5" width="72" height="72" filterUnits="userSpaceOnUse">
      <feOffset dy="2" input="SourceAlpha"/>
      <feGaussianBlur stdDeviation="4.5" result="blur-3"/>
      <feFlood flood-opacity="0.161"/>
      <feComposite operator="in" in2="blur-3"/>
      <feComposite in="SourceGraphic"/>
    </filter>
    <linearGradient id="linear-gradient-2" x1="0.907" y1="1.512" x2="0.355" y2="-3.91" gradientUnits="objectBoundingBox">
      <stop offset="0" stop-color="#00ffa3"/>
      <stop offset="1" stop-color="#dc1fff"/>
    </linearGradient>
    <linearGradient id="linear-gradient-3" x1="0.666" y1="5.175" x2="0.114" y2="-0.247" xlink:href="#linear-gradient-2"/>
    <linearGradient id="linear-gradient-4" x1="0.786" y1="3.356" x2="0.234" y2="-2.067" xlink:href="#linear-gradient-2"/>
  </defs>
  <g id="herocover" transform="translate(-1060 -223)">
    <rect id="Rectangle_90" data-name="Rectangle 90" width="756" height="567" transform="translate(1060 223)" fill="#fff" opacity="0"/>
    <g id="herocover-2" data-name="herocover" transform="translate(1178 230.251)">
      <ellipse id="Ellipse_73" data-name="Ellipse 73" cx="255.671" cy="255.417" rx="255.671" ry="255.417" transform="translate(8.638 40.749)" fill="#f5f5f5"/>
      <g id="head" transform="translate(249.823)">
        <path id="Path_101" data-name="Path 101" d="M14413.4-826.05s1.65,18.9,5.484,28.968,3.309,20.289,6.088,31.184,6.218,17.809,11.027,21.754a13.883,13.883,0,0,0,10.708,2.743l-7.213,22.318-7.388,16.988,15.142,25.154,18.561-2.833,38.415-18.1v-68.478l4.885-33.555-2.541-22.028-15.824-18.316-33.946-6.2Z" transform="translate(-14405.692 864.749)" fill="#ffb681"/>
        <path id="Path_99" data-name="Path 99" d="M14473.494-836.757a43.743,43.743,0,0,0,0,24.763c3.963,13.7,6.9,15.418,6.9,15.418h1.734s-3.7-6.792.4-13.612,11.5-3.237,13.469-1.445,6.3,8.613,3.872,15.058-5.434,6.676-5.434,6.676,6.909,21.228,7.2,24.234,11.95-29.45,14.089-41.358,2.719-33.126-13.595-38.3a8.987,8.987,0,0,1,5.787-.169c2.684,1.052,5.919,3.026,6.13,3.026s2.474-.5.579-1.842a27.031,27.031,0,0,0-6.524-3.262,10.728,10.728,0,0,0-7.577.737c0-.026-6.358-14.448-22.948-17.049s-22.949,1.214-27.515,4.451-8.236,4.537-19.45,3.035a26.822,26.822,0,0,0-23.295,8.15c-4.1,4.335-8.207,18.714,3.873,30.549v-7.355s5.028,9.335,15.838,7.355c4.064-.744,8.426-1.219,20.043-5.983S14473.494-836.757,14473.494-836.757Z" transform="translate(-14403.181 864.749)" fill="#272727"/>
        <path id="Path_100" data-name="Path 100" d="M14434.243-801.909s-.845-4.135-3.868-5.469-5.691,1.334-5.691,1.334" transform="translate(-14342.11 864.749)" fill="none" stroke="#272727" stroke-linecap="round" stroke-width="3"/>
        <path id="Path_102" data-name="Path 102" d="M14440.327-741.379l-6.772,21.071s19.345-6.271,31.545-16.892,17.515-25.607,17.515-25.607-9.942,11.329-22.37,16.7S14440.327-741.379,14440.327-741.379Z" transform="translate(-14399.353 864.749)" fill="#f78744"/>
      </g>
      <path id="Path_107" data-name="Path 107" d="M14607.849-702.373l62.808,45.277s16,6.1,21.726,38.63,2.341,55.783,1.221,73.928,1.521,33.94,0,55.965-1.623,40.43-13.859,57.764-33.248,11.367-38.418,9.644-138.664-53.862-138.664-53.862a16.594,16.594,0,0,0,4.941-9.334c1.255-6.353-.706-33.414-.706-33.414l116.027,26.825s-9.335-57.807-8-63.219S14601.2-515.5,14601.2-515.5l-10.665,34.024s-1.121,37.636,2.016,50.181a198.476,198.476,0,0,0,5.854,19.758L14440.53-429.1s-8.566,0-6.73-11.828,3.93-12.732,3.93-12.732l-111.389-19.4s5.435-9.014,6.628-18.691a64.639,64.639,0,0,0-.795-18.956l77.877-.994s4.706-50.106,13.189-90.536,13.653-61.44,24.921-82.185,79.137-23.893,79.137-23.893l23.6,14.39s.286,7.391-1.71,11.893,1.3.511,2.646-4.456a33.377,33.377,0,0,1,2.182-6.451l4.733-2.46Z" transform="translate(-14255.322 864.749)" fill="#00e497"/>
      <path id="Path_103" data-name="Path 103" d="M14462.831-720.851s4.02,8.279,5.087,12.948a9.147,9.147,0,0,1-2.531,8.911,77.542,77.542,0,0,1-18.56,12.731,95.006,95.006,0,0,1-21.776,6.951s-3.039-8.368-6.209-11.709-6.472-1.655-6.472-1.655a7.72,7.72,0,0,1,5.649-5.817c4.8-1.156,3.235.76,15.551-3.775S14462.831-720.851,14462.831-720.851Z" transform="translate(-14113.938 864.749)" fill="#00af92"/>
      <path id="Path_104" data-name="Path 104" d="M14496.188-693.73s1.469-4.935-3.467-6.714-7.294-8-7.693-12.717-.577-6.581-.577-6.581a40.81,40.81,0,0,0-13.606,11.071c.045.044-.177,8.359,2.624,14.184a28.547,28.547,0,0,0,7.47,9.382,24.255,24.255,0,0,1,5.856-6.086c3.449-2.345,4.7-2.879,6.652-3.3A2.548,2.548,0,0,1,14496.188-693.73Z" transform="translate(-14200.6 864.749)" fill="#00af92"/>
      <path id="Path_105" data-name="Path 105" d="M14476.106-694.639c-3.677,3.3-5.284,9.514-5.284,9.514a23.758,23.758,0,0,1,5.15-5.572c3.157-2.4,5.633-3.51,7.463-3.809a2.759,2.759,0,0,1,2.625.688s.786-2.6-.548-4.31S14479.783-697.94,14476.106-694.639Z" transform="translate(-14190.475 864.749)" fill="#028f77"/>
      <path id="Path_106" data-name="Path 106" d="M14461.629-698.588a62.083,62.083,0,0,1,4.428,9.616,49.554,49.554,0,0,1,2.133,9.66s-2.96-8.106-6.039-11.551a5.812,5.812,0,0,0-6.625-1.825,8.377,8.377,0,0,1,2.2-3.975A7.189,7.189,0,0,1,14461.629-698.588Z" transform="translate(-14157.076 864.749)" fill="#028f77"/>
      <path id="Path_108" data-name="Path 108" d="M14584.277-421.074s11.716,25.806,18.266,91.418c0,0-36.539,16.026-86.685,16.715s-85.473-12.709-106.5-20.808c0,0,16.588-87.961,20.156-95.1,0,0,21.337.7,60.187,2.647s95.211,5.127,95.211,5.127" transform="translate(-14245.268 864.749)" fill="#272727"/>
      <path id="Path_109" data-name="Path 109" d="M14439.334-325.622s-2.742-27.562-6.788-53.542a279.7,279.7,0,0,0-9.337-41.23c.063.194.03.095,0,0-.023-.075-.12-.367-.189-.574h0" transform="translate(-14095.715 865.241)" fill="none" stroke="#000" stroke-width="3"/>
      <path id="Path_110" data-name="Path 110" d="M14546.1-407.481s-8.617,9.014-16.3,13.388c0,0-8.882-5.435-14.581-13.388" transform="translate(-14294.674 864.749)" fill="none" stroke="#000" stroke-linecap="round" stroke-width="2"/>
      <path id="Path_111" data-name="Path 111" d="M14522.365-394.755l12.46,80.936a70.123,70.123,0,0,1-9.882-.755s-.236-15.665-1.883-29.3-6.9-37.565-2.274-48.476l1.128-2.4Z" transform="translate(-14287.111 864.749)"/>
      <path id="Path_112" data-name="Path 112" d="M14351.86-621.595s-3.579-16.437-11.135-26.909-16.7-12.593-16.7-12.593" transform="translate(-13909.244 864.749)" fill="none" stroke="#272727" stroke-linecap="round" stroke-width="2"/>
      <path id="Path_113" data-name="Path 113" d="M14406.737-645.853s-17.365,4.639-27.439,17.1a80,80,0,0,0-13.786,25.849" transform="translate(-14005.611 864.749)" fill="none" stroke="#272727" stroke-linecap="round" stroke-width="2"/>
      <path id="Path_114" data-name="Path 114" d="M14418.488-657.478s-6.565,1.418-17.908-3.771a121.788,121.788,0,0,1-27.905-17.573c-8.326-6.818-20.815-16.954-20.815-16.954s4.638-3.531,5.313-5.909Z" transform="translate(-14003.709 864.749)" fill="#fff" opacity="0.38"/>
      <path id="Path_115" data-name="Path 115" d="M14584.48-439.685a96.77,96.77,0,0,0,3.977,18.864l-54.45-3.263-72.245-3.722s-26.159.29-30.341-1.647-6.729-5.105-3.249-18.333c2.97-8.772,3.425-6.974,5.617-13.831a61.84,61.84,0,0,0,2.583-10.188l75.533,3.059,72.575,27.7Z" transform="translate(-14248.357 864.749)" fill="#00af92"/>
      <path id="Path_116" data-name="Path 116" d="M14451.023-594.854l1.427,39.971-19.476,57.2-25.8-6.118s6.322-5.914,19.17-31,13.562-36.046,19.17-48.18S14451.023-594.854,14451.023-594.854Z" transform="translate(-14092.988 864.749)" fill="#00af92"/>
      <ellipse id="Ellipse_60" data-name="Ellipse 60" cx="4" cy="19" rx="4" ry="19" transform="translate(75.01 392.334) rotate(-172)" fill="#272727"/>
      <path id="Path_117" data-name="Path 117" d="M14693-668.14c-2.692,16.3-2.307,43.791-2.307,43.791l-.628,64.235s.4,65.341,1.194,75.813,1.058,11-1.194,18.293a79.607,79.607,0,0,1-4.9,12.328l-111.316-19.552s5.834-7.158,7.159-20.149-1.193-17.9-1.193-17.9h78.077s3.447-42.75,10.473-78.938,12.237-58.246,18.1-72.377,9.466-21.862,9.466-21.862" transform="translate(-14503.125 864.749)" fill="#00af92"/>
      <path id="Path_118" data-name="Path 118" d="M14645.72-489.485s-.647,10.55-9.9,16.825-21.631,8.079-31.983,8.628-25.884-.706-25.884-.706,52.4,10.746,61.809,10.981c-.078-.078,6.509-9.02,6.667-18.9A133.386,133.386,0,0,0,14645.72-489.485Z" transform="translate(-14457.756 864.749)" fill="#00af92"/>
      <path id="Path_119" data-name="Path 119" d="M14535.085-676.941s-27.106,64.181-34.052,90.391c-4.035,15.228-8.01,28.591-11.426,50.629s-2.428,27.95-2.24,37.524c.448,22.85.9,34.388-4.256,37.524s-9.408,7.617-7.168,16.13,5.151,8.289,5.151,8.289" transform="translate(-14243.777 864.749)" fill="none" stroke="#272727" stroke-linecap="round" stroke-linejoin="round" stroke-width="2"/>
      <ellipse id="Ellipse_53" data-name="Ellipse 53" cx="2" cy="3" rx="2" ry="3" transform="matrix(-0.921, -0.391, 0.391, -0.921, 272.307, 211.292)" fill="#272727"/>
      <ellipse id="Ellipse_54" data-name="Ellipse 54" cx="2" cy="3" rx="2" ry="3" transform="matrix(-0.921, -0.391, 0.391, -0.921, 259.307, 245.292)" fill="#272727"/>
      <ellipse id="Ellipse_55" data-name="Ellipse 55" cx="2" cy="3" rx="2" ry="3" transform="translate(246.674 281.202) rotate(-163)" fill="#272727"/>
      <ellipse id="Ellipse_56" data-name="Ellipse 56" cx="2" cy="3" rx="2" ry="3" transform="translate(239.912 318.122) rotate(-167)" fill="#272727"/>
      <ellipse id="Ellipse_57" data-name="Ellipse 57" cx="2" cy="3.5" rx="2" ry="3.5" transform="translate(238.258 390.97) rotate(-173)" fill="#272727"/>
      <path id="Path_120" data-name="Path 120" d="M14563.548-790.41s-7.765,7.608-10.04,16.472-3.374,15.217-1.1,25.649,8.313,22.3-3.922,36.414-27.138,15.942-24.707,40.572,4.235,28.708-5.569,38.983-17.55,18.805-15.511,49.553" transform="translate(-14299.281 864.749)" fill="none" stroke="#272727" stroke-width="2"/>
      <path id="Path_147" data-name="Path 147" d="M6578.525-2703.083l-6.22-31.813-43.846-7.138-3.977,5.2,6.832,35.382Z" transform="translate(-6362.371 3018.749)"/>
      <path id="Path_146" data-name="Path 146" d="M6578.729-2696.557l-6.424-33.241-44.253-6.628,6.729,35.076Z" transform="translate(-6366.143 3018.749)" fill="#272727"/>
      <path id="Path_145" data-name="Path 145" d="M6579.137-2672.186l.966,34.225-29.746-11.283a41.421,41.421,0,0,0-9.186-1.373c-3.862.061-12.49-.423-18.4-3.5s-21.872-11.615-26.578-15.114-7.6-4.284-6.456-8.145,2.595-3.439,2.595-3.439-5.37-2.232-3.379-5.913,4.344-4.465,4.344-4.465-4.344-2.443-2.353-6.426,5.249-3.681,5.249-3.681-1.87-3.771.543-5.762,5.973-1.177,9.111,0,24.736,9.744,29.2,7.451,4.466-3.922,5.31-6.335.332-10.89,4.435-14.812,6.818-4.948,8.628-4.1.181,2.775-.6,4.887-2.594,5.491-2.051,9.835-.121,12.64,0,14.028,1.448,6,6.094,10.951,7.482,8.4,12.127,9.91S6579.137-2672.186,6579.137-2672.186Z" transform="translate(-6327.973 3018.749)" fill="#ffb681"/>
      <path id="Path_148" data-name="Path 148" d="M6508.139-2672.135v5.2a23.557,23.557,0,0,1-11.371-4.316,21.609,21.609,0,0,1-7.333-9.7,22.335,22.335,0,0,0,10.164,6.451C6505.819-2672.785,6508.139-2672.135,6508.139-2672.135Z" transform="translate(-6256.936 3018.749)" fill="#f78744"/>
      <path id="Path_149" data-name="Path 149" d="M6563.528-2901.718s19.981,7.88,19.841,23.781,2.417,21.365,8.331,26.463,21.363,14.836,27.174,25.237,1.427,33.394,6.423,42.469,24.268,18.813,28.958,30.437,3.467,16.824,3.467,16.824" transform="translate(-6501.383 3018.749)" fill="none" stroke="#000" stroke-linecap="round" stroke-linejoin="round" stroke-width="2"/>
      <path id="Path_150" data-name="Path 150" d="M6739.35-2664.672a38.489,38.489,0,0,1-17.869-6.66c-8.958-6.173-13.553-15.5-14.759-17.4s-13.03-21.373-13.03-21.373-.558-1.346-1.718-.65-6.033,3.6-3.759,9.77,6.034,13.135,6.916,17.033.789,4.78,0,5.43-12.208-.186-18.751.464-10.941,2.819-11.127,5.743,1.393,3.2.882,4.084-3.9,3.063-3.667,5.894,2.645,3.342,2.274,4.781-3.016,3.063-1.531,5.616,4.409,1.694,3.9,3.411-2.135,2.042-.975,5.291,10.384,4.943,17.717,5.361,19.042-.905,26.188-1.833,26.56,6.587,26.56,6.587,2.6-4.039,3.708-14.551S6739.35-2664.672,6739.35-2664.672Z" transform="translate(-6662.458 3018.749)" fill="#ffb681"/>
      <path id="Path_151" data-name="Path 151" d="M6487.058-2657.441l-64.528-14.6.482,13.274s-.181,3.862,7.18,4.585,56.866-.38,56.866-.38,2.606.317,2.311-1.2S6487.058-2657.441,6487.058-2657.441Z" transform="translate(-6171.284 3018.749)" fill="#61efbf"/>
      <path id="Path_158" data-name="Path 158" d="M6652.723-2954.705s-17.447,15.75-14.986,36.914,5.906,24.609,3.445,35.437-18.209,20.179-24.116,29.531-8.367,19.2-4.43,33.961,1.476,20.18-3.446,27.07-15.046,11.074-16.838,28.1,0,24.195,0,24.195l-35.62-6.049-3.584,6.049s.672-12.993-7.841-22.626-16.354-11.65-22.179-19.49-4.929-13.218-5.825-25.763,0-19.49-10.3-29.347-23.076-16.914-25.54-25.2-1.765-14.8-2.522-20.432-3.578-10.2-9.1-15.261c0,0,21.117-20.672,41.89-35.4s44.784-19.274,44.784-19.274,53.251-17.949,88.491-20.643Z" transform="translate(-6392.084 3018.749)" fill="url(#linear-gradient)"/>
      <path id="Path_159" data-name="Path 159" d="M16.927.558S3.709-1.691,3.314,2.844C3.108,5.22,6.889,6.6,10.939,7.236a37.464,37.464,0,0,0,6.473.339s-3.492.015-7.748,0C5.718,7.558.985,7.587.84,10.1c-.724,5.831,15.439,5.415,15.439,5.415S8.134,15.2,5.273,14.935s-6.382,1.142-4.938,4.8,15.944,4.04,15.944,4.04S.124,21.755.879,26.829s12.031,5.736,12.031,5.736" transform="translate(31.102 375.706) rotate(177)" fill="none" stroke="#f78744" stroke-linecap="round" stroke-linejoin="round" stroke-width="1.5"/>
      <path id="Path_160" data-name="Path 160" d="M6698.4-2673.89s-.241,12.837,8.87,16.955" transform="translate(-6665.029 3018.749)" fill="none" stroke="#f78744" stroke-linecap="round" stroke-width="2"/>
      <path id="Path_161" data-name="Path 161" d="M6370.184-2581.476s-22.571,35.508-53.542,61.608-70.345,42.79-70.345,42.79" transform="translate(-5875.842 3018.749)" fill="none" stroke="#000" stroke-linecap="round" stroke-width="2"/>
      <g id="Group_172" data-name="Group 172" transform="translate(-1178 -231.251)">
        <g id="Group_170" data-name="Group 170" transform="translate(3.2 3.2)">
          <g id="Group_166" data-name="Group 166" transform="translate(1337.875 266.875)">
            <g transform="matrix(1, 0, 0, 1, -281.07, -46.07)" filter="url(#Ellipse_74)">
              <circle id="Ellipse_74-2" data-name="Ellipse 74" cx="21.5" cy="21.5" r="21.5" transform="translate(281 46)" fill="#fafafa"/>
            </g>
            <g id="Layer_2" data-name="Layer 2" transform="translate(8.014 7.617)">
              <g id="Layer_1" data-name="Layer 1">
                <path id="Path_172" data-name="Path 172" d="M8.284,11.384l5.261-5.261,5.264,5.264,3.061-3.061L13.546,0,5.223,8.322l3.061,3.061M0,13.546l3.061-3.062,3.061,3.061L3.061,16.606Zm8.284,2.162,5.261,5.261,5.264-5.263,3.063,3.06,0,0-8.325,8.325L5.223,18.769l0,0,3.066-3.057m12.684-2.16,3.061-3.061,3.061,3.061L24.03,16.608Z" fill="#fbb303"/>
                <path id="Path_173" data-name="Path 173" d="M969.4,966.3h0L966.3,963.19l-2.3,2.3h0l-.264.264-.544.544,0,0,0,0,3.1,3.1L969.4,966.3v0h0" transform="translate(-952.752 -952.752)" fill="#fbb303"/>
              </g>
            </g>
          </g>
        </g>
        <g id="Group_171" data-name="Group 171" transform="translate(2.704 2.704)">
          <g id="Group_165" data-name="Group 165" transform="translate(1301.894 348.894)">
            <g transform="matrix(1, 0, 0, 1, -244.6, -127.6)" filter="url(#Ellipse_76)">
              <circle id="Ellipse_76-2" data-name="Ellipse 76" cx="21.5" cy="21.5" r="21.5" transform="translate(245 128)" fill="#fff" opacity="0.4"/>
            </g>
            <g id="Layer_x0020_1" transform="translate(13.658 8.679)">
              <g id="_1421394342400">
                <g id="Group_163" data-name="Group 163">
                  <path id="Path_164" data-name="Path 164" d="M383.677,0,383.5.6V18l.177.176,8.078-4.775Z" transform="translate(-375.598)" fill="#343434"/>
                  <path id="Path_165" data-name="Path 165" d="M8.078,0,0,13.4l8.078,4.775V0Z" fill="#8c8c8c"/>
                  <path id="Path_166" data-name="Path 166" d="M387.339,729.663l-.1.121v6.2l.1.291,8.083-11.384Z" transform="translate(-379.261 -709.954)" fill="#3c3c3b"/>
                  <path id="Path_167" data-name="Path 167" d="M8.078,736.274v-6.611L0,724.89Z" transform="translate(0 -709.954)" fill="#8c8c8c"/>
                  <path id="Path_168" data-name="Path 168" d="M392.07,480.777,400.148,476l-8.078-3.672Z" transform="translate(-383.992 -462.598)" fill="#141414"/>
                  <path id="Path_169" data-name="Path 169" d="M0,476l8.078,4.775V472.33Z" transform="translate(0 -462.598)" fill="#393939"/>
                </g>
              </g>
            </g>
          </g>
        </g>
        <g id="Group_169" data-name="Group 169" transform="translate(2.588 2.588)">
          <g id="Group_164" data-name="Group 164" transform="translate(1240.899 251.899)">
            <g transform="matrix(1, 0, 0, 1, -183.49, -30.49)" filter="url(#Ellipse_75)">
              <circle id="Ellipse_75-2" data-name="Ellipse 75" cx="22.5" cy="22.5" r="22.5" transform="translate(183 30)" fill="#fafafa" opacity="0.85"/>
            </g>
            <g id="solana-sol-logo" transform="translate(11.511 13.832)">
              <path id="Path_174" data-name="Path 174" d="M3.491,234.306a.707.707,0,0,1,.5-.206H21.236a.353.353,0,0,1,.25.6l-3.407,3.407a.707.707,0,0,1-.5.206H.334a.353.353,0,0,1-.25-.6Z" transform="translate(0.02 -221.381)" fill="url(#linear-gradient-2)"/>
              <path id="Path_175" data-name="Path 175" d="M3.491.206A.727.727,0,0,1,3.991,0H21.236a.353.353,0,0,1,.25.6L18.079,4.01a.707.707,0,0,1-.5.206H.334a.353.353,0,0,1-.25-.6Z" transform="translate(0.02 0)" fill="url(#linear-gradient-3)"/>
              <path id="Path_176" data-name="Path 176" d="M18.079,116.506a.707.707,0,0,0-.5-.206H.334a.353.353,0,0,0-.25.6l3.407,3.407a.707.707,0,0,0,.5.206H21.236a.353.353,0,0,0,.25-.6Z" transform="translate(0.02 -109.981)" fill="url(#linear-gradient-4)"/>
            </g>
          </g>
        </g>
      </g>
    </g>
  </g>
</svg>
