<svg xmlns="http://www.w3.org/2000/svg" xmlns:xlink="http://www.w3.org/1999/xlink" width="960" height="696" viewBox="0 0 960 696">
  <defs>
    <clipPath id="clip-path">
      <rect id="Rectangle_83" data-name="Rectangle 83" width="960" height="696" fill="#fff"/>
    </clipPath>
    <linearGradient id="linear-gradient" x1="0.985" y1="0.057" x2="0" y2="0.972" gradientUnits="objectBoundingBox">
      <stop offset="0" stop-color="#00af92"/>
      <stop offset="1" stop-color="#00e497"/>
    </linearGradient>
    <filter id="Union_1" x="213.477" y="168.326" width="495.047" height="370.555" filterUnits="userSpaceOnUse">
      <feOffset dy="3" input="SourceAlpha"/>
      <feGaussianBlur stdDeviation="12" result="blur"/>
      <feFlood flood-opacity="0.161"/>
      <feComposite operator="in" in2="blur"/>
      <feComposite in="SourceGraphic"/>
    </filter>
  </defs>
  <g id="g3" clip-path="url(#clip-path)">
    <path id="Path_48" data-name="Path 48" d="M24.652,446.908,820,477.494c9.5.365,16.968-12.818,16.671-29.445l-6.9-386.687c-.3-16.628-8.242-30.4-17.745-30.769L16.68.007C7.176-.358-.288,12.825.009,29.453l6.9,386.687C7.2,432.767,15.148,446.543,24.652,446.908Z" transform="matrix(-0.999, -0.035, 0.035, -0.999, 762.321, 589.918)" fill="#00e497" opacity="0.11"/>
    <path id="Path_49" data-name="Path 49" d="M31.234,451.244l800.19,51.87c9.562.62,16.864-12.487,16.31-29.276L834.846,83.412c-.554-16.788-8.755-30.9-18.317-31.52L16.339.021C6.777-.6-.525,12.508.03,29.3L12.918,419.723C13.472,436.512,21.673,450.624,31.234,451.244Z" transform="matrix(-0.998, -0.07, 0.07, -0.998, 757.868, 617.236)" fill="#00e497" opacity="0.11"/>
    <path id="Path_50" data-name="Path 50" d="M18.176,9.726,803.974,0c9.39-.116,16.964,13.281,16.917,29.923L819.8,416.946c-.047,16.642-7.7,30.227-17.087,30.343l-785.8,9.725C7.527,457.13-.047,443.734,0,427.092L1.089,40.069C1.136,23.427,8.786,9.842,18.176,9.726Z" transform="translate(-57.879 108.205)" fill="url(#linear-gradient)"/>
    <g id="Group_132" data-name="Group 132" transform="matrix(-1, -0.017, 0.017, -1, 667.44, 499.881)">
      <g transform="matrix(-1, 0.02, -0.02, -1, 676.06, 488.16)" filter="url(#Union_1)">
        <path id="Union_1-2" data-name="Union 1" d="M13.136,0A13.137,13.137,0,0,0,0,13.136l48.448,81.52.232.387V274.7a16.6,16.6,0,0,0,16.607,16.6H350.424a16.6,16.6,0,0,0,16.6-16.606V93.806L417.5,13.2l.523-.063q0-.372-.021-.74l.021-.033H418A13.137,13.137,0,0,0,404.891,0Z" transform="matrix(-1, -0.02, 0.02, -1, 667.44, 499.88)" fill="#fff"/>
      </g>
      <path id="Path_72" data-name="Path 72" d="M404.89,0H13.136A13.136,13.136,0,0,0,0,13.136H0q213.016,24.757,418.026,0h0A13.136,13.136,0,0,0,404.89,0Z" transform="translate(0.001 0.001)" fill="#d4d4d4"/>
      <path id="Path_84" data-name="Path 84" d="M418.026,0,0,.773,48.448,82.292l.232.386V262.336a16.6,16.6,0,0,0,16.607,16.605H350.423a16.6,16.6,0,0,0,16.605-16.607V81.442Z" transform="translate(0.001 12.364)" fill="#fff" stroke="#eaeaea" stroke-width="1"/>
      <path id="Path_74" data-name="Path 74" d="M5.409,174.628A5.415,5.415,0,0,1,0,169.219V5.409A5.415,5.415,0,0,1,5.409,0H293.623a5.415,5.415,0,0,1,5.409,5.409V169.22a5.415,5.415,0,0,1-5.409,5.409Z" transform="translate(59.498 105.086)" fill="#fff"/>
      <path id="Path_75" data-name="Path 75" d="M17.247,37.089a2.325,2.325,0,0,1-2.106-1.349L.212,3.287A2.318,2.318,0,0,1,2.318,0H316.251a2.318,2.318,0,0,1,2.073,3.355L302.1,35.808a2.306,2.306,0,0,1-2.073,1.281Z" transform="translate(48.868 46.362)" fill="#fff" stroke="#afafaf" stroke-width="1"/>
      <circle id="Ellipse_46" data-name="Ellipse 46" cx="3.477" cy="3.477" r="3.477" transform="translate(204.377 282.419)" fill="#fff"/>
      <path id="Path_76" data-name="Path 76" d="M6.063,18.545a2.321,2.321,0,0,1-2.238-1.715L.08,2.921A2.318,2.318,0,0,1,2.318,0H73.532a2.318,2.318,0,0,1,2.19,3.076L70.908,16.985a2.319,2.319,0,0,1-2.191,1.56Z" transform="translate(170.935 21.635)" fill="#fbb303"/>
      <path id="Path_77" data-name="Path 77" d="M318.581,3.09V0H0L.24.386v2.7Z" transform="translate(48.448 94.655)" fill="#606060"/>
      <g id="Group_131" data-name="Group 131" transform="translate(187.83 224.356)">
        <circle id="Ellipse_47" data-name="Ellipse 47" cx="21.419" cy="21.419" r="21.419" transform="translate(0 0)" fill="#00e497"/>
        <path id="Path_78" data-name="Path 78" d="M18.971,0H1.224A1.225,1.225,0,0,0,0,1.224V11.933a1.225,1.225,0,0,0,1.224,1.224H18.971a1.225,1.225,0,0,0,1.224-1.224V1.224A1.225,1.225,0,0,0,18.971,0ZM1.224,11.933V1.224H18.972V11.933Z" transform="translate(11.321 12.086)" fill="#fff" stroke="#fff" stroke-linecap="round" stroke-linejoin="round" stroke-width="2"/>
        <path id="Path_79" data-name="Path 79" d="M11.015,0H0V4.9c0,3.546,2.316,6.12,5.508,6.12s5.508-2.574,5.508-6.12ZM1.224,1.224H9.791V4.9c0,2.882-1.762,4.9-4.284,4.9S1.224,7.778,1.224,4.9Z" transform="translate(15.911 24.019)" fill="#fff" stroke="#fff" stroke-linecap="round" stroke-linejoin="round" stroke-width="2"/>
        <circle id="Ellipse_48" data-name="Ellipse 48" cx="2.063" cy="2.063" r="2.063" transform="translate(19.355 16.907)" fill="#fff"/>
      </g>
      <path id="Path_80" data-name="Path 80" d="M226.867,0H4.125A4.13,4.13,0,0,0,0,4.125V59.378A4.13,4.13,0,0,0,4.125,63.5H226.867a4.13,4.13,0,0,0,4.125-4.125V4.125A4.13,4.13,0,0,0,226.867,0ZM4.125,61.853A2.478,2.478,0,0,1,1.65,59.378V4.125A2.478,2.478,0,0,1,4.125,1.65H226.867a2.478,2.478,0,0,1,2.475,2.475V59.378a2.478,2.478,0,0,1-2.475,2.475Z" transform="translate(93.518 137.581)" fill="#e6e6e6"/>
      <circle id="Ellipse_49" data-name="Ellipse 49" cx="16.802" cy="16.802" r="16.802" transform="translate(115.45 154.65)" fill="#e6e6e6"/>
      <path id="Path_81" data-name="Path 81" d="M2.8,5.6A2.8,2.8,0,1,1,2.8,0H134.82a2.8,2.8,0,0,1,0,5.6Z" transform="translate(168.258 177.053)" fill="#e6e6e6"/>
      <path id="Path_82" data-name="Path 82" d="M2.8,5.6A2.8,2.8,0,1,1,2.8,0H59.609a2.8,2.8,0,1,1,0,5.6Z" transform="translate(168.258 160.251)" fill="#e6e6e6"/>
    </g>
  </g>
</svg>
