<svg id="Component_17_1" data-name="Component 17 – 1" xmlns="http://www.w3.org/2000/svg" xmlns:xlink="http://www.w3.org/1999/xlink" width="960" height="695" viewBox="0 0 960 695">
  <defs>
    <clipPath id="clip-path">
      <rect id="Rectangle_81" data-name="Rectangle 81" width="960" height="695" transform="translate(4032 3247)" fill="#fff"/>
    </clipPath>
    <linearGradient id="linear-gradient" x1="0.985" y1="0.943" x2="0" y2="0.028" gradientUnits="objectBoundingBox">
      <stop offset="0" stop-color="#00af92"/>
      <stop offset="1" stop-color="#00e497"/>
    </linearGradient>
    <linearGradient id="linear-gradient-2" x1="0.5" y1="1" x2="0.5" gradientUnits="objectBoundingBox">
      <stop offset="0" stop-color="gray" stop-opacity="0.251"/>
      <stop offset="0.54" stop-color="gray" stop-opacity="0.122"/>
      <stop offset="1" stop-color="gray" stop-opacity="0.102"/>
    </linearGradient>
    <filter id="Ellipse_74" x="689.5" y="397.5" width="80" height="80" filterUnits="userSpaceOnUse">
      <feOffset dy="3" input="SourceAlpha"/>
      <feGaussianBlur stdDeviation="4.5" result="blur"/>
      <feFlood flood-opacity="0.161"/>
      <feComposite operator="in" in2="blur"/>
      <feComposite in="SourceGraphic"/>
    </filter>
    <filter id="Ellipse_75" x="689.5" y="241.5" width="80" height="80" filterUnits="userSpaceOnUse">
      <feOffset dy="3" input="SourceAlpha"/>
      <feGaussianBlur stdDeviation="4.5" result="blur-2"/>
      <feFlood flood-opacity="0.161"/>
      <feComposite operator="in" in2="blur-2"/>
      <feComposite in="SourceGraphic"/>
    </filter>
    <filter id="Ellipse_76" x="689.5" y="319.5" width="80" height="80" filterUnits="userSpaceOnUse">
      <feOffset dy="3" input="SourceAlpha"/>
      <feGaussianBlur stdDeviation="4.5" result="blur-3"/>
      <feFlood flood-opacity="0.161"/>
      <feComposite operator="in" in2="blur-3"/>
      <feComposite in="SourceGraphic"/>
    </filter>
    <linearGradient id="linear-gradient-6" x1="0.5" y1="1" x2="0.5" gradientUnits="objectBoundingBox">
      <stop offset="0" stop-color="#00e497"/>
      <stop offset="0.54" stop-color="#00bf7f"/>
      <stop offset="1" stop-color="#00e497"/>
    </linearGradient>
    <linearGradient id="linear-gradient-7" x1="0.5" x2="0.5" y2="0" xlink:href="#linear-gradient-2"/>
    <linearGradient id="linear-gradient-9" x1="0.5" x2="0.5" y2="0" xlink:href="#linear-gradient-2"/>
    <linearGradient id="linear-gradient-11" x1="0.5" x2="0.5" y2="0" xlink:href="#linear-gradient-2"/>
    <linearGradient id="linear-gradient-12" x1="0.159" y1="0.156" x2="0.824" y2="0.869" xlink:href="#linear-gradient"/>
    <linearGradient id="linear-gradient-13" x1="0.5" x2="0.5" y2="0" xlink:href="#linear-gradient-2"/>
  </defs>
  <g id="Mask_Group_1" data-name="Mask Group 1" transform="translate(-4032 -3247)" clip-path="url(#clip-path)">
    <g id="Group_125" data-name="Group 125" transform="translate(3072 38)">
      <path id="Path_48" data-name="Path 48" d="M17.127-.867l795.35-30.585c9.5-.365,16.968,12.818,16.671,29.445l-6.9,386.687c-.3,16.628-8.242,30.4-17.745,30.769L9.155,446.034c-9.5.365-16.968-12.818-16.671-29.445L-.618,29.9C-.322,13.274,7.623-.5,17.127-.867Z" transform="translate(1149.633 3352.885) rotate(-2)" fill="#00e497" opacity="0.11"/>
      <path id="Path_49" data-name="Path 49" d="M17.09-1.693,713.415-46.83,817.28-53.563c9.562-.62,16.864,12.487,16.31,29.276L820.7,366.139c-.554,16.788-8.755,30.9-18.317,31.52L2.2,449.529c-9.562.62-16.864-12.487-16.31-29.276L-1.226,29.827C-.672,13.039,7.529-1.073,17.09-1.693Z" transform="matrix(0.998, -0.07, 0.07, 0.998, 1144.883, 3376.794)" fill="#00e497" opacity="0.11"/>
      <path id="Path_50" data-name="Path 50" d="M18.176,447.289l785.8,9.725c9.39.116,16.964-13.281,16.917-29.923L819.8,40.069c-.047-16.642-7.7-30.227-17.087-30.343L16.917,0C7.527-.115-.047,13.281,0,29.923L1.089,416.946C1.136,433.588,8.786,447.173,18.176,447.289Z" transform="translate(1977.879 3774.22) rotate(180)" fill="url(#linear-gradient)"/>
      <g id="undraw_vault_9cmw" transform="translate(1275 3394.387)">
        <rect id="Rectangle_27" data-name="Rectangle 27" width="25.629" height="30.311" transform="translate(286.097 343.916)" fill="url(#linear-gradient-2)"/>
        <rect id="Rectangle_28" data-name="Rectangle 28" width="24.44" height="31.208" transform="translate(311.134 375.119) rotate(180)" fill="#f5f5f5"/>
        <rect id="Rectangle_29" data-name="Rectangle 29" width="25.629" height="27.311" transform="translate(35.166 343.916)" fill="url(#linear-gradient-2)"/>
        <rect id="Rectangle_30" data-name="Rectangle 30" width="24.44" height="28.208" transform="translate(35.763 343.916)" fill="#f5f5f5"/>
        <rect id="Rectangle_31" data-name="Rectangle 31" width="346.3" height="348.087" rx="14.86" fill="url(#linear-gradient-2)"/>
        <rect id="Rectangle_32" data-name="Rectangle 32" width="342.124" height="342.124" rx="14.86" transform="translate(2.384 1.787)" fill="#fafafa"/>
        <rect id="Rectangle_33" data-name="Rectangle 33" width="231.265" height="233.649" transform="translate(57.518 56.92)" fill="url(#linear-gradient-2)"/>
        <g id="Group_167" data-name="Group 167" transform="translate(-4347 -3423.387)">
          <g id="Group_166" data-name="Group 166" transform="translate(4735 3645.522)">
            <g transform="matrix(1, 0, 0, 1, -703, -407.52)" filter="url(#Ellipse_74)">
              <circle id="Ellipse_74-2" data-name="Ellipse 74" cx="26.5" cy="26.5" r="26.5" transform="translate(703 408)" fill="#fff"/>
            </g>
            <g id="Layer_2" data-name="Layer 2" transform="translate(10.368 10.368)">
              <g id="Layer_1" data-name="Layer 1">
                <path id="Path_172" data-name="Path 172" d="M9.964,13.693l6.328-6.328L22.624,13.7l3.682-3.682L16.293,0,6.282,10.01l3.682,3.682M0,16.293,3.682,12.61l3.682,3.682L3.682,19.974Zm9.964,2.6,6.328,6.328,6.331-6.331,3.684,3.68,0,0L16.293,32.586,6.282,22.575l-.005-.005,3.688-3.677m15.256-2.6L28.9,12.612l3.682,3.682L28.9,19.976Z" fill="#fbb303"/>
                <path id="Path_173" data-name="Path 173" d="M970.663,966.926h0l-3.736-3.736-2.762,2.761h0l-.317.317-.654.654-.005.005.005.005,3.733,3.734,3.736-3.736,0,0,0,0" transform="translate(-950.635 -950.636)" fill="#fbb303"/>
              </g>
            </g>
          </g>
          <g id="Group_164" data-name="Group 164" transform="translate(4735 3490)">
            <g transform="matrix(1, 0, 0, 1, -703, -252)" filter="url(#Ellipse_75)">
              <circle id="Ellipse_75-2" data-name="Ellipse 75" cx="26.5" cy="26.5" r="26.5" transform="translate(703 252)" fill="#fff"/>
            </g>
            <g id="Layer_x0020_1" transform="translate(10.368 10.368)">
              <g id="_1421344023328" transform="translate(0)">
                <path id="Path_162" data-name="Path 162" d="M32.491,20.485A16.489,16.489,0,1,1,20.48.494,16.49,16.49,0,0,1,32.491,20.485h0Z" transform="translate(0 -0.001)" fill="#f7931a"/>
                <path id="Path_163" data-name="Path 163" d="M15.74,8.4c.328-2.2-1.343-3.375-3.628-4.162l.741-2.973L11.043.811l-.722,2.9c-.476-.119-.964-.231-1.45-.341L9.6.451,7.79,0,7.048,2.972c-.394-.09-.781-.178-1.156-.272l0-.009L3.4,2.068,2.917,4s1.343.308,1.315.327a.963.963,0,0,1,.843,1.053L4.23,8.768a1.471,1.471,0,0,1,.188.06l-.191-.047L3.044,13.527a.659.659,0,0,1-.829.43C2.232,13.983.9,13.628.9,13.628L0,15.7l2.355.587c.438.11.868.225,1.29.333L2.9,19.628l1.808.451L5.447,17.1c.494.134.973.258,1.442.374L6.15,20.439l1.81.451.749-3c3.086.584,5.407.349,6.384-2.443.787-2.248-.039-3.544-1.663-4.389A2.886,2.886,0,0,0,15.741,8.4h0ZM11.6,14.2c-.559,2.248-4.344,1.033-5.571.728l.994-3.984c1.227.306,5.161.912,4.577,3.256Zm.56-5.831c-.51,2.044-3.66,1.006-4.682.751l.9-3.614c1.022.255,4.312.73,3.781,2.863Z" transform="matrix(0.966, -0.259, 0.259, 0.966, 5.591, 8.145)" fill="#fff"/>
              </g>
            </g>
          </g>
          <g id="Group_165" data-name="Group 165" transform="translate(4735 3567.761)">
            <g transform="matrix(1, 0, 0, 1, -703, -329.76)" filter="url(#Ellipse_76)">
              <circle id="Ellipse_76-2" data-name="Ellipse 76" cx="26.5" cy="26.5" r="26.5" transform="translate(703 330)" fill="#fff"/>
            </g>
            <g id="Layer_x0020_1-2" data-name="Layer_x0020_1" transform="translate(16.293 10.368)">
              <g id="_1421394342400">
                <g id="Group_163" data-name="Group 163">
                  <path id="Path_164" data-name="Path 164" d="M383.719,0,383.5.743V22.289l.219.218,10-5.912Z" transform="translate(-373.717)" fill="#343434"/>
                  <path id="Path_165" data-name="Path 165" d="M10,0,0,16.6l10,5.912V0Z" fill="#8c8c8c"/>
                  <path id="Path_166" data-name="Path 166" d="M387.363,730.8l-.123.15v7.675l.123.36,10.007-14.094Z" transform="translate(-377.362 -706.398)" fill="#3c3c3b"/>
                  <path id="Path_167" data-name="Path 167" d="M10,738.984V730.8L0,724.89Z" transform="translate(0 -706.398)" fill="#8c8c8c"/>
                  <path id="Path_168" data-name="Path 168" d="M392.07,482.788l10-5.912-10-4.546Z" transform="translate(-382.068 -460.281)" fill="#141414"/>
                  <path id="Path_169" data-name="Path 169" d="M0,476.876l10,5.912V472.33Z" transform="translate(0 -460.281)" fill="#393939"/>
                </g>
              </g>
            </g>
          </g>
        </g>
        <rect id="Rectangle_43" data-name="Rectangle 43" width="227.686" height="227.686" transform="translate(59.304 59.304)" fill="#fff"/>
        <circle id="Ellipse_32" data-name="Ellipse 32" cx="42.916" cy="42.916" r="42.916" transform="translate(130.234 130.234)" fill="url(#linear-gradient-6)"/>
        <circle id="Ellipse_33" data-name="Ellipse 33" cx="41.129" cy="41.129" r="41.129" transform="translate(132.021 132.021)" fill="#fafafa"/>
        <rect id="Rectangle_44" data-name="Rectangle 44" width="12.518" height="13.111" transform="translate(141.859 255.102)" fill="url(#linear-gradient-7)"/>
        <rect id="Rectangle_45" data-name="Rectangle 45" width="12.518" height="13.111" transform="translate(158.549 255.102)" fill="url(#linear-gradient-7)"/>
        <rect id="Rectangle_46" data-name="Rectangle 46" width="12.518" height="13.111" transform="translate(175.233 255.102)" fill="url(#linear-gradient-9)"/>
        <rect id="Rectangle_47" data-name="Rectangle 47" width="12.518" height="13.111" transform="translate(191.923 255.102)" fill="url(#linear-gradient-9)"/>
        <rect id="Rectangle_48" data-name="Rectangle 48" width="11.921" height="11.921" transform="translate(142.155 255.699)" fill="#00e497"/>
        <rect id="Rectangle_49" data-name="Rectangle 49" width="11.921" height="11.921" transform="translate(158.845 255.699)" fill="#00e497" opacity="0.7"/>
        <rect id="Rectangle_50" data-name="Rectangle 50" width="11.921" height="11.921" transform="translate(175.534 255.699)" fill="#00e497" opacity="0.5"/>
        <rect id="Rectangle_51" data-name="Rectangle 51" width="11.921" height="11.921" transform="translate(192.224 255.699)" fill="#00e497" opacity="0.3"/>
        <rect id="Rectangle_52" data-name="Rectangle 52" width="2.384" height="8.342" transform="matrix(0.819, 0.574, -0.574, 0.819, 190.365, 147.004)" fill="#00af92"/>
        <rect id="Rectangle_53" data-name="Rectangle 53" width="2.384" height="8.342" transform="matrix(-0.574, 0.819, -0.819, -0.574, 199.296, 190.362)" fill="#00af92"/>
        <rect id="Rectangle_54" data-name="Rectangle 54" width="2.384" height="8.342" transform="matrix(-0.819, -0.574, 0.574, -0.819, 155.933, 199.293)" fill="#00af92"/>
        <rect id="Rectangle_55" data-name="Rectangle 55" width="2.384" height="8.342" transform="matrix(0.574, -0.819, 0.819, 0.574, 147.007, 155.935)" fill="#00af92"/>
        <rect id="Rectangle_56" data-name="Rectangle 56" width="2.384" height="8.342" transform="matrix(0.819, 0.574, -0.574, 0.819, 190.343, 146.934)" fill="#00e497"/>
        <rect id="Rectangle_57" data-name="Rectangle 57" width="2.384" height="8.342" transform="matrix(-0.574, 0.819, -0.819, -0.574, 199.276, 190.293)" fill="#00e497"/>
        <path id="Path_97" data-name="Path 97" d="M0,0H2.384V8.342H0Z" transform="matrix(-0.819, -0.574, 0.574, -0.819, 155.917, 199.222)" fill="#00e497"/>
        <rect id="Rectangle_59" data-name="Rectangle 59" width="2.384" height="8.342" transform="matrix(0.574, -0.819, 0.819, 0.574, 146.987, 155.865)" fill="#00e497"/>
        <circle id="Ellipse_34" data-name="Ellipse 34" cx="25.925" cy="25.925" r="25.925" transform="translate(147.225 147.225)" fill="url(#linear-gradient-11)"/>
        <path id="Path_98" data-name="Path 98" d="M24.44,0A24.44,24.44,0,1,1,0,24.44,24.44,24.44,0,0,1,24.44,0Z" transform="translate(148.71 148.71)" fill="url(#linear-gradient-12)"/>
        <path id="Path_43" data-name="Path 43" d="M556.3,402.676a24.434,24.434,0,0,1,36.59-21.223,24.434,24.434,0,1,0-29.1,38.8A24.358,24.358,0,0,1,556.3,402.676Z" transform="translate(-403.117 -226.248)" fill="#00af92"/>
        <path id="Path_44" data-name="Path 44" d="M377.994,333.111H358.92V285.488a1.853,1.853,0,0,1,1.853-1.848h15.372A1.853,1.853,0,0,1,378,285.493Z" transform="translate(-308.851 -181.716)" fill="url(#linear-gradient-13)"/>
        <path id="Path_45" data-name="Path 45" d="M376.049,516.4H360.865a1.945,1.945,0,0,1-1.945-1.945V466.93h19.074v47.516a1.945,1.945,0,0,1-1.945,1.955Z" transform="translate(-308.851 -271.428)" fill="url(#linear-gradient-2)"/>
        <path id="Path_46" data-name="Path 46" d="M100.863,200.8H115.51a1.618,1.618,0,0,1,1.618,1.618v46.066H99.26V202.434A1.618,1.618,0,0,1,100.863,200.8Z" transform="translate(-48.584 -98.283)" fill="#fafafa"/>
        <path id="Path_47" data-name="Path 47" d="M99.23,384.1H117.1v47.138a.541.541,0,0,1-.541.541H99.776a.541.541,0,0,1-.541-.541V384.1Z" transform="translate(-48.569 -188.001)" fill="#fafafa"/>
      </g>
    </g>
  </g>
</svg>
