<svg xmlns="http://www.w3.org/2000/svg" width="83.514" height="83.514" viewBox="0 0 83.514 83.514">
  <g id="insta" transform="translate(1 1)">
    <g id="Group_5" data-name="Group 5">
      <ellipse id="Ellipse_6" data-name="Ellipse 6" cx="40.757" cy="40.757" rx="40.757" ry="40.757" fill="none" stroke="#5670d2" stroke-miterlimit="10" stroke-width="2"/>
    </g>
    <g id="Group_6" data-name="Group 6" transform="translate(22.456 22.932)">
      <path id="Path_2" data-name="Path 2" d="M90.271,264.186c4.759,0,5.324.017,7.2.1a9.88,9.88,0,0,1,3.31.614,5.9,5.9,0,0,1,3.382,3.383,9.8,9.8,0,0,1,.614,3.31c.086,1.879.1,2.443.1,7.2s-.019,5.323-.1,7.2a9.8,9.8,0,0,1-.614,3.31,5.9,5.9,0,0,1-3.382,3.383,9.885,9.885,0,0,1-3.31.614c-1.879.085-2.443.1-7.2.1s-5.324-.019-7.2-.1a9.87,9.87,0,0,1-3.31-.614,5.906,5.906,0,0,1-3.383-3.383,9.869,9.869,0,0,1-.614-3.31c-.086-1.879-.1-2.443-.1-7.2s.017-5.324.1-7.2a9.867,9.867,0,0,1,.614-3.31,5.9,5.9,0,0,1,3.383-3.383,9.865,9.865,0,0,1,3.31-.614c1.879-.086,2.443-.1,7.2-.1m0-3.212c-4.842,0-5.448.02-7.35.107a13.069,13.069,0,0,0-4.327.828,9.114,9.114,0,0,0-5.213,5.214,13.061,13.061,0,0,0-.828,4.326c-.087,1.9-.107,2.508-.107,7.35s.02,5.448.107,7.35a13.061,13.061,0,0,0,.828,4.326,9.114,9.114,0,0,0,5.213,5.214,13.1,13.1,0,0,0,4.327.828c1.9.087,2.508.107,7.35.107s5.448-.02,7.35-.107a13.094,13.094,0,0,0,4.326-.828,9.12,9.12,0,0,0,5.214-5.214,13.124,13.124,0,0,0,.828-4.326c.087-1.9.107-2.508.107-7.35s-.02-5.448-.107-7.35a13.123,13.123,0,0,0-.828-4.326,9.121,9.121,0,0,0-5.214-5.214,13.061,13.061,0,0,0-4.326-.828c-1.9-.087-2.509-.107-7.35-.107" transform="translate(-72.446 -260.974)"/>
      <path id="Path_3" data-name="Path 3" d="M88.563,267.938a9.153,9.153,0,1,0,9.153,9.153,9.153,9.153,0,0,0-9.153-9.153m0,15.094a5.941,5.941,0,1,1,5.941-5.941,5.942,5.942,0,0,1-5.941,5.941" transform="translate(-70.738 -259.266)"/>
      <path id="Path_4" data-name="Path 4" d="M96.962,268.068a2.139,2.139,0,1,1-2.139-2.139,2.141,2.141,0,0,1,2.139,2.139" transform="translate(-67.482 -259.759)"/>
    </g>
  </g>
</svg>
