<svg xmlns="http://www.w3.org/2000/svg" width="1283.648" height="256.567" viewBox="0 0 1283.648 256.567">
  <g id="green2" transform="translate(-2085.352 -1602.433)">
    <g id="Group_153" data-name="Group 153" transform="translate(1952.604 1487.705)">
      <path id="Path_86" data-name="Path 86" d="M6045.016-1601.136s5.845-1.187,15.761,7.9,23.967,21.568,56.81,21.843c11.659.1,18.164-.027,22.372,3.406,1.925,1.57,4.34,3.493,5.387,7.767,2.859,11.65,2.592,33,1.519,56.566-1.451,31.883-9.362,65.4-29.278,92.624s-45.141,46.6-72.369,48.7c-15.574,1.2-37.216-11.157-54.517-27.987a142.158,142.158,0,0,1-28.332-39.676c-5.969-12.905-14.213-39.843-16.78-68.718-1.154-12.981-1.153-49.557-1.153-49.557s.241-10.177,1.408-13.424a11.859,11.859,0,0,1,3.6-5.091,13.552,13.552,0,0,1,6.866-4.247c6.211-1.315,15.022-.448,18.174-.517,9.85-.214,19.811-1.223,25.538-3.083A76.346,76.346,0,0,0,6029.707-1593C6034.883-1597.962,6039.079-1600.969,6045.016-1601.136Z" transform="translate(-5811.688 1715.916)" fill="#02d767"/>
      <g id="Group_140" data-name="Group 140" transform="translate(198.778 180.868)">
        <path id="Path_88" data-name="Path 88" d="M7818.06-1391.48l-5.919,6.4s6.04,35.48,35.479,35.48,35.48-35.48,35.48-35.48l-35.48-35.48-6.214,6.1" transform="translate(-7812.141 1455.774)" fill="none" stroke="#fff" stroke-linecap="round" stroke-linejoin="round" stroke-width="11"/>
        <path id="Path_89" data-name="Path 89" d="M7877.18-1378.688l5.921-6.4s-6.307-35.073-35.48-35.073-35.479,35.073-35.479,35.073l35.479,35.481,6.215-6.1" transform="translate(-7812.141 1420.564)" fill="none" stroke="#fff" stroke-linecap="round" stroke-linejoin="round" stroke-width="11"/>
      </g>
    </g>
    <text id="SafeChain" transform="translate(2909 1794)" fill="#272727" font-size="171" font-family="Mont-Bold, Mont" font-weight="700"><tspan x="-459.135" y="0">SafeChain</tspan></text>
  </g>
</svg>
