<svg xmlns="http://www.w3.org/2000/svg" xmlns:xlink="http://www.w3.org/1999/xlink" width="1271.839" height="238.937" viewBox="0 0 1271.839 238.937">
  <defs>
    <linearGradient id="linear-gradient" x1="0.5" x2="0.5" y2="1" gradientUnits="objectBoundingBox">
      <stop offset="0" stop-color="#00af92"/>
      <stop offset="1" stop-color="#00e497"/>
    </linearGradient>
  </defs>
  <g id="Group_161" data-name="Group 161" transform="translate(-2085.352 -432.434)">
    <g id="Component_11_1" data-name="Component 11 – 1" transform="translate(2085.352 432.434)">
      <path id="Path_86" data-name="Path 86" d="M6045.016-1601.136s5.845-1.187,15.761,7.9,23.967,21.568,56.81,21.843c11.659.1,18.164-.027,22.372,3.406,1.925,1.57,4.34,3.493,5.387,7.767,2.859,11.65,2.592,33,1.519,56.566-1.451,31.883-9.362,65.4-29.278,92.624s-45.141,46.6-72.369,48.7c-15.574,1.2-37.216-11.157-54.517-27.987a142.158,142.158,0,0,1-28.332-39.676c-5.969-12.905-14.213-39.843-16.78-68.718-1.154-12.981-1.153-49.557-1.153-49.557s.241-10.177,1.408-13.424a11.859,11.859,0,0,1,3.6-5.091,13.552,13.552,0,0,1,6.866-4.247c6.211-1.315,15.022-.448,18.174-.517,9.85-.214,19.811-1.223,25.538-3.083A76.346,76.346,0,0,0,6029.707-1593C6034.883-1597.962,6039.079-1600.969,6045.016-1601.136Z" transform="translate(-5944.436 1601.187)" fill="url(#linear-gradient)"/>
      <g id="Component_252_1" data-name="Component 252 – 1" transform="translate(66.031 101.349)">
        <path id="Path_88" data-name="Path 88" d="M7818.06-1391.48l-5.919,6.4s6.04,35.48,35.479,35.48,35.48-35.48,35.48-35.48l-35.48-35.48-6.214,6.1" transform="translate(-7812.141 1420.564)" fill="none" stroke="#fff" stroke-linecap="round" stroke-linejoin="round" stroke-width="11"/>
      </g>
      <path id="Path_89" data-name="Path 89" d="M7877.18-1378.688l5.921-6.4s-6.307-35.073-35.48-35.073-35.479,35.073-35.479,35.073l35.479,35.481,6.215-6.1" transform="translate(-7746.11 1486.704)" fill="none" stroke="#fff" stroke-linecap="round" stroke-linejoin="round" stroke-width="11"/>
    </g>
    <path id="Path_121" data-name="Path 121" d="M-405.783,2.394q-20.862,0-33.6-11.03t-12.74-30.182h26.163a17.159,17.159,0,0,0,1.624,7.61,14.235,14.235,0,0,0,4.446,5.386,20.261,20.261,0,0,0,6.413,3.078,27.256,27.256,0,0,0,7.524,1.026,24.2,24.2,0,0,0,13.595-3.762,11.687,11.687,0,0,0,5.728-10.26A8.844,8.844,0,0,0-388-40.613a12.229,12.229,0,0,0-3.163-3.42,24.469,24.469,0,0,0-5.472-2.65q-3.676-1.368-6.241-2.052t-7.7-1.881l-6.156-1.539q-2.052-.513-6.07-1.71A55.565,55.565,0,0,1-428.954-56q-2.137-.94-5.557-2.651a23.705,23.705,0,0,1-5.3-3.42q-1.881-1.71-4.189-4.275a19.39,19.39,0,0,1-3.506-5.387,39.749,39.749,0,0,1-2.052-6.5,34.265,34.265,0,0,1-.855-7.781q0-17.1,11.628-26.505t31.806-9.405q20.349,0,31.72,10.26t11.372,28.215h-25.65q0-7.353-5.215-11.2a21.15,21.15,0,0,0-12.91-3.848,23.392,23.392,0,0,0-11.885,2.907,9.175,9.175,0,0,0-5.044,8.379,8.108,8.108,0,0,0,1.283,4.532,12.632,12.632,0,0,0,2.993,3.249,20.833,20.833,0,0,0,5.3,2.565,61.686,61.686,0,0,0,6.07,1.881l7.439,1.8q5.472,1.368,8.208,2.138t7.866,2.565a43.7,43.7,0,0,1,7.952,3.506q2.822,1.71,6.584,4.532a21.4,21.4,0,0,1,5.728,6.156,37.843,37.843,0,0,1,3.42,8.037A34.294,34.294,0,0,1-360.3-36.081q0,12.483-6.327,21.375a36.838,36.838,0,0,1-16.33,13A59.723,59.723,0,0,1-405.783,2.394ZM-265.9-92.511h18.639V-.171h-19.665l-2.052-8.208A44.268,44.268,0,0,1-298.908,2.565q-20.862,0-34.628-13.937T-347.3-46.341q0-20.862,13.766-34.713T-298.908-94.9a43.926,43.926,0,0,1,30.267,11.286Zm-48.992,64.3q7.1,7.182,17.955,7.182a24.466,24.466,0,0,0,18.04-7.182q7.182-7.182,7.182-18.126T-278.9-64.467a24.361,24.361,0,0,0-17.955-7.182,25.187,25.187,0,0,0-12.91,3.335,24.041,24.041,0,0,0-8.978,9.063,25.705,25.705,0,0,0-3.249,12.91Q-321.993-35.4-314.9-28.215Zm148.172-62.928v20.691h-23.256V0h-24.966V-70.452h-16.074V-91.143h16.245v-8.379q0-13.509,7.524-21.2t21.717-7.695H-166.9v19.665h-13.68q-10.089,0-10.089,9.918v7.695ZM-64.638-46.512a54.4,54.4,0,0,1-.513,7.353h-69.768q1.539,9.405,7.439,14.45t15.133,5.045a23.374,23.374,0,0,0,11.457-2.822,20.685,20.685,0,0,0,8.037-7.78h26.334A47.692,47.692,0,0,1-83.961-6.327a47.228,47.228,0,0,1-28.386,8.892q-20.52,0-34.2-14.022t-13.68-34.713A53.332,53.332,0,0,1-157.919-61.9a45.315,45.315,0,0,1,6.669-13.509,48.665,48.665,0,0,1,10.174-10.345,44.949,44.949,0,0,1,13.167-6.755A49.952,49.952,0,0,1-112.347-94.9a48.087,48.087,0,0,1,24.881,6.5A44.121,44.121,0,0,1-70.537-70.794,50.988,50.988,0,0,1-64.638-46.512ZM-112.347-73.7a21.761,21.761,0,0,0-14.107,4.617,23.069,23.069,0,0,0-7.781,12.825H-89.6a26.344,26.344,0,0,0-4.959-9.491,21.889,21.889,0,0,0-7.781-5.9A23.97,23.97,0,0,0-112.347-73.7ZM9.747,2.565A62.218,62.218,0,0,1-21.717-5.558a58.29,58.29,0,0,1-22.23-22.4,63.543,63.543,0,0,1-8.037-31.72q0-26.676,17.7-44.631T9.747-122.265q21.888,0,37.791,13.167T67.716-74.556H41.724a35.544,35.544,0,0,0-7.011-12.227,31.5,31.5,0,0,0-11.03-8.037A34.218,34.218,0,0,0,9.747-97.641,33.362,33.362,0,0,0-15.647-86.783Q-25.821-75.924-25.821-59.765t10.174,26.933A33.488,33.488,0,0,0,9.747-22.059,32.1,32.1,0,0,0,30.1-28.728,34.013,34.013,0,0,0,41.9-46.854H68.058q-4.1,22.23-20.092,35.825T9.747,2.565ZM137.826-94.563q15.732,0,24.8,10.431t9.063,28.044V0H146.718V-51.984q0-10.431-3.848-15.561t-12.227-5.13q-9.4,0-15.048,6.5t-5.643,17.613V0H84.987V-125.685h24.966v41.9Q121.239-94.563,137.826-94.563Zm132.183,2.052h18.639V-.171H268.983l-2.052-8.208A44.268,44.268,0,0,1,237.006,2.565q-20.862,0-34.628-13.937t-13.766-34.97q0-20.862,13.766-34.713T237.006-94.9a43.926,43.926,0,0,1,30.267,11.286Zm-48.992,64.3q7.1,7.182,17.955,7.182a24.466,24.466,0,0,0,18.041-7.182q7.182-7.182,7.182-18.126t-7.182-18.126a24.361,24.361,0,0,0-17.955-7.182,25.187,25.187,0,0,0-12.911,3.335,24.04,24.04,0,0,0-8.978,9.063,25.705,25.705,0,0,0-3.249,12.91Q213.921-35.4,221.017-28.215Zm91.57-76.437v-23.256h24.966v23.256ZM312.588,0V-92.34h24.966V0ZM414.162-94.563q15.732,0,24.88,10.517t9.148,28.129V0H423.225V-51.984q0-20.691-16.074-20.691a20.548,20.548,0,0,0-11.03,2.907,18.55,18.55,0,0,0-7.182,8.379,30.829,30.829,0,0,0-2.479,12.825V0H361.494V-92.34h17.1l4.959,11.457a31.208,31.208,0,0,1,5.9-5.729,39.912,39.912,0,0,1,7.268-4.275,40.431,40.431,0,0,1,8.293-2.736A43.294,43.294,0,0,1,414.162-94.563Z" transform="translate(2909 624)" fill="#272727"/>
  </g>
</svg>
