<svg xmlns="http://www.w3.org/2000/svg" width="83.235" height="83.235" viewBox="0 0 83.235 83.235">
  <g id="medium" transform="translate(1 1)">
    <ellipse id="Ellipse_4" data-name="Ellipse 4" cx="40.618" cy="40.618" rx="40.618" ry="40.618" fill="none" stroke="#00e497" stroke-miterlimit="10" stroke-width="2"/>
    <path id="iconmonstr-medium-1" d="M4.277,8.841a1.4,1.4,0,0,0-.455-1.178L.455,3.606V3H10.911l8.082,17.724L26.1,3h9.967v.606l-2.879,2.76a.844.844,0,0,0-.32.808V27.458a.842.842,0,0,0,.32.807L36,31.025v.606H21.854v-.606L24.768,28.2c.286-.286.286-.37.286-.807V11l-8.1,20.569H15.861L6.432,11V24.782a1.9,1.9,0,0,0,.521,1.581l3.788,4.6v.607H0v-.607l3.788-4.6a1.831,1.831,0,0,0,.488-1.581V8.841Z" transform="translate(22.089 23.756)" fill-rule="evenodd"/>
  </g>
</svg>
