<svg id="q1" xmlns="http://www.w3.org/2000/svg" width="36" height="36" viewBox="0 0 36 36">
  <path id="Path_178" data-name="Path 178" d="M0,0H36V36H0Z" fill="none"/>
  <path id="Path_179" data-name="Path 179" d="M13.486,16.207h3.253a6.737,6.737,0,0,1,6.745,6.73H12.99l0,1.5H24.982v-1.5a8.328,8.328,0,0,0-1.328-4.487H27.98a7.5,7.5,0,0,1,6.769,4.264,19.732,19.732,0,0,1-15.762,7.7,21.744,21.744,0,0,1-10.492-2.43V14.07A10.455,10.455,0,0,1,13.486,16.207ZM7,27.424a1.5,1.5,0,0,1-1.5,1.5h-3a1.5,1.5,0,0,1-1.5-1.5V13.964a1.5,1.5,0,0,1,1.5-1.5h3a1.5,1.5,0,0,1,1.5,1.5ZM26.481,6.487a4.487,4.487,0,1,1-4.5,4.487A4.492,4.492,0,0,1,26.481,6.487ZM15.989,2a4.487,4.487,0,1,1-4.5,4.487A4.492,4.492,0,0,1,15.989,2Z" transform="translate(0.517 1.034)" fill="#fff"/>
</svg>
