<svg id="q3" xmlns="http://www.w3.org/2000/svg" width="36" height="36" viewBox="0 0 36 36">
  <path id="Path_174" data-name="Path 174" d="M0,0H36V36H0Z" fill="none"/>
  <path id="Path_175" data-name="Path 175" d="M31.727,7.4h-10.4a8.81,8.81,0,1,0,0,17.618h10.4v2.936a1.477,1.477,0,0,1-1.486,1.468H3.486A1.477,1.477,0,0,1,2,27.959V4.468A1.477,1.477,0,0,1,3.486,3H30.241a1.477,1.477,0,0,1,1.486,1.468Zm-10.4,2.936H33.213V22.086H21.323a5.873,5.873,0,1,1,0-11.745Zm0,4.4v2.936h4.459V14.745Z" transform="translate(1.191 1.787)" fill="#fff"/>
</svg>
