<svg id="q4" xmlns="http://www.w3.org/2000/svg" width="36" height="36" viewBox="0 0 36 36">
  <path id="Path_176" data-name="Path 176" d="M0,0H36V36H0Z" fill="none"/>
  <path id="Path_177" data-name="Path 177" d="M29.772,9.462V30.345a1.49,1.49,0,0,1-1.477,1.5H4.477A1.479,1.479,0,0,1,3,30.367V3.48A1.493,1.493,0,0,1,4.484,2H22.331ZM10.437,10.954v8.357A3.751,3.751,0,0,0,12.2,22.467l4.184,2.665,4.184-2.665a3.749,3.749,0,0,0,1.765-3.155V10.954Zm2.975,2.985h5.949v5.373a.769.769,0,0,1-.387.636L16.386,21.6,13.8,19.946a.769.769,0,0,1-.387-.636Z" transform="translate(1.614 1.076)" fill="#000"/>
</svg>
