<svg xmlns="http://www.w3.org/2000/svg" width="84.404" height="84.404" viewBox="0 0 84.404 84.404">
  <g id="reddit" transform="translate(1 1)">
    <g id="Group_19" data-name="Group 19" transform="translate(-6.125 -6.125)">
      <ellipse id="Ellipse_12" data-name="Ellipse 12" cx="41.202" cy="41.202" rx="41.202" ry="41.202" transform="translate(6.125 88.528) rotate(-90)" fill="none" stroke="#5670d2" stroke-miterlimit="10" stroke-width="2"/>
    </g>
    <path id="Subtraction_3" data-name="Subtraction 3" d="M22.034,40.393h0c-5.622,0-10.446-1.684-13.951-4.87A16,16,0,0,1,4.365,30.54a15.249,15.249,0,0,1-1.475-5.7c.016-.024-.094-.147-.306-.38l0-.005C1.5,23.265-1.783,19.647,1.262,16.74A5.031,5.031,0,0,1,4.784,15.2,6.339,6.339,0,0,1,8.631,16.74l0,0a17.425,17.425,0,0,1,3.531-2.09,23.833,23.833,0,0,1,4.225-1.472,25.693,25.693,0,0,1,5.693-.738C22,12.4,23.687,5.205,24.7.962L24.709.9c0-.03.137-.738,1.436-.738a5.277,5.277,0,0,1,1.034.116c2.2.444,6.5,1.442,6.983,1.554h.005A3.962,3.962,0,0,1,37.2,0a3.261,3.261,0,0,1,.379.023A4.159,4.159,0,0,1,39.411.73a3.857,3.857,0,0,1,1.312,1.5,3.06,3.06,0,0,1-.3,3.134,3.521,3.521,0,0,1-5.675.674,4.148,4.148,0,0,1-1.156-2.489l-7.514-1.3L24.132,12.438h0a8.81,8.81,0,0,1,1.324-.084c2.215,0,6.7.57,11.86,4.388a.011.011,0,0,1,0-.012A7.337,7.337,0,0,1,41.374,15.4a4.05,4.05,0,0,1,2.289.644,4.7,4.7,0,0,1,1.749,2.431,5.67,5.67,0,0,1-.011,4.671,4.754,4.754,0,0,1-2.721,2.171l0,0a9.009,9.009,0,0,1,.093,2.29,10.821,10.821,0,0,1-1.752,5.1,13.336,13.336,0,0,1-4.234,3.978A25.137,25.137,0,0,1,28.7,39.678,33.286,33.286,0,0,1,22.034,40.393Zm-7.456-8.976a.843.843,0,0,0-.846.528c-.128.394.12.857.663,1.24a14.068,14.068,0,0,0,8.63,2.674c.18,0,.359.007.533.007,4.37,0,6.952-1.5,7.789-2.39a1.446,1.446,0,0,0,.418-1.387.579.579,0,0,0-.582-.322,3.445,3.445,0,0,0-1.566.572c-2.556,1.486-4,1.511-6.627,1.557h-.154a14.633,14.633,0,0,1-7.285-2.113A1.592,1.592,0,0,0,14.578,31.417Zm16.34-11.027a3.72,3.72,0,1,0,3.771,3.72A3.75,3.75,0,0,0,30.918,20.391Zm-15.769,0a3.72,3.72,0,1,0,3.771,3.72A3.75,3.75,0,0,0,15.149,20.391Z" transform="translate(17.766 20.799)"/>
  </g>
</svg>
