<svg xmlns="http://www.w3.org/2000/svg" width="83.235" height="83.235" viewBox="0 0 83.235 83.235">
  <g id="telegram" transform="translate(1 1)">
    <g id="Group_3" data-name="Group 3">
      <ellipse id="Ellipse_4" data-name="Ellipse 4" cx="40.618" cy="40.618" rx="40.618" ry="40.618" fill="none" stroke="#5670d2" stroke-miterlimit="10" stroke-width="2"/>
    </g>
    <path id="Path_1" data-name="Path 1" d="M107.8,380.679a2.323,2.323,0,0,0-2.277-1.336,4.848,4.848,0,0,0-1.56.281c-.231.088-23.075,8.817-32.444,12.662a2.616,2.616,0,0,0-1.581,1.41,1.8,1.8,0,0,0,.93,2.156c2.328,1.025,7.171,2.449,8.688,2.886.5,1.663,2.249,7.465,3.062,9.949a1.629,1.629,0,0,0,1.674,1.032c.123,0,.2-.009.2-.009a.865.865,0,0,0,.56-.3.853.853,0,0,0,.216-.5l.484-7.007c.916.687,2.25,1.686,3.723,2.787,2.914,2.179,6.386,4.763,8.33,6.168a3.447,3.447,0,0,0,1.986.751,2.713,2.713,0,0,0,2.48-2.236c1.61-6.266,3.971-18.107,5.382-25.182l.309-1.549A2.987,2.987,0,0,0,107.8,380.679ZM84.14,400.2l-.431,6.224c-1.06-3.382-2.616-8.573-2.635-8.635,0-.017-.021-.028-.027-.046l0-.037L98.9,386.076a8.779,8.779,0,0,1,1.68-.937c.623-.136.773.112.661.262a30.553,30.553,0,0,1-2.481,2.347l-14.238,11.79v.009A.854.854,0,0,0,84.14,400.2Z" transform="translate(-50.695 -355.071)"/>
  </g>
</svg>
