<svg xmlns="http://www.w3.org/2000/svg" width="84.404" height="84.404" viewBox="0 0 84.404 84.404">
  <g id="twitter" transform="translate(1 1)">
    <ellipse id="Ellipse_12" data-name="Ellipse 12" cx="41.202" cy="41.202" rx="41.202" ry="41.202" transform="translate(0 82.404) rotate(-90)" fill="none" stroke="#5670d2" stroke-miterlimit="10" stroke-width="2"/>
    <path id="Path_9" data-name="Path 9" d="M289.758,175.815a21.184,21.184,0,0,0,11.476,3.364c13.9,0,21.753-11.739,21.28-22.269a15.2,15.2,0,0,0,3.736-3.876,14.956,14.956,0,0,1-4.3,1.178,7.5,7.5,0,0,0,3.291-4.142,14.993,14.993,0,0,1-4.752,1.818,7.492,7.492,0,0,0-12.759,6.828,21.242,21.242,0,0,1-15.43-7.823,7.494,7.494,0,0,0,2.318,10,7.447,7.447,0,0,1-3.393-.937,7.494,7.494,0,0,0,6,7.436,7.5,7.5,0,0,1-3.38.128,7.491,7.491,0,0,0,6.993,5.2A15.047,15.047,0,0,1,289.758,175.815Z" transform="translate(-266.802 -120.957)"/>
  </g>
</svg>
