<svg xmlns="http://www.w3.org/2000/svg" xmlns:xlink="http://www.w3.org/1999/xlink" width="93.488" height="93.488" viewBox="0 0 93.488 93.488">
  <defs>
    <linearGradient id="linear-gradient" x1="0.972" y1="0.063" x2="0.071" y2="0.938" gradientUnits="objectBoundingBox">
      <stop offset="0" stop-color="#00e497"/>
      <stop offset="1" stop-color="#00af92"/>
    </linearGradient>
  </defs>
  <g id="Component_248_1" data-name="Component 248 – 1" transform="translate(1 1)">
    <ellipse id="Ellipse_12" data-name="Ellipse 12" cx="45.744" cy="45.744" rx="45.744" ry="45.744" transform="translate(0 91.488) rotate(-90)" fill="none" stroke="#00e497" stroke-miterlimit="10" stroke-width="2"/>
    <path id="Path_9" data-name="Path 9" d="M289.758,178.713a23.52,23.52,0,0,0,12.741,3.735c15.433,0,24.151-13.033,23.626-24.725a16.87,16.87,0,0,0,4.148-4.3,16.6,16.6,0,0,1-4.774,1.308,8.322,8.322,0,0,0,3.654-4.6,16.646,16.646,0,0,1-5.276,2.018,8.318,8.318,0,0,0-14.165,7.581,23.584,23.584,0,0,1-17.131-8.685,8.321,8.321,0,0,0,2.573,11.1,8.268,8.268,0,0,1-3.767-1.04,8.321,8.321,0,0,0,6.667,8.256,8.321,8.321,0,0,1-3.753.143,8.317,8.317,0,0,0,7.764,5.772A16.706,16.706,0,0,1,289.758,178.713Z" transform="translate(-264.271 -117.808)" fill="url(#linear-gradient)"/>
  </g>
</svg>
